<svg xmlns="http://www.w3.org/2000/svg" width="820" height="660" viewBox="0 0 820 660"><rect width="100%" height="100%" fill="#DDDDDD"/><path fill="#999999" d="M193.09 359.755q3.33 0 5.83-.95 2.51-.95 4.23-2.64 1.71-1.69 2.59-4.04.87-2.34.87-5.06 0-6.49-3.6-9.82-3.59-3.32-9.92-3.32-6.32 0-9.92 3.32-3.59 3.33-3.59 9.82 0 2.72.87 5.06.87 2.35 2.59 4.04 1.71 1.69 4.22 2.64t5.83.95m0-59.89q-2.99 0-5.17.92-2.18.93-3.63 2.48-1.44 1.56-2.12 3.57-.69 2.02-.69 4.26 0 2.34.58 4.55.57 2.2 1.93 3.92t3.6 2.75q2.23 1.04 5.5 1.04t5.51-1.04q2.23-1.03 3.59-2.75 1.37-1.72 1.94-3.92.57-2.21.57-4.55 0-2.24-.71-4.26-.71-2.01-2.12-3.57-1.42-1.55-3.6-2.48-2.18-.92-5.18-.92m13.3 28.45q7.19 2.34 10.63 7.16 3.43 4.83 3.43 11.8 0 5.24-1.99 9.49t-5.58 7.24q-3.6 3-8.64 4.64-5.04 1.63-11.15 1.63-6.1 0-11.14-1.63-5.04-1.64-8.64-4.64-3.6-2.99-5.59-7.24t-1.99-9.49q0-6.97 3.44-11.8 3.43-4.82 10.63-7.16-5.73-2.4-8.59-6.82-2.86-4.41-2.86-10.62 0-4.47 1.83-8.34 1.82-3.87 5.09-6.73t7.82-4.47 10-1.61 10 1.61 7.82 4.47 5.1 6.73 1.83 8.34q0 6.21-2.87 10.62-2.86 4.42-8.58 6.82m51.56 28.55h20.22q2.18 0 3.46 1.23t1.28 3.24v8.07h-54.07v-4.47q0-1.36.58-2.86.57-1.5 1.82-2.7l23.93-23.98q3-3.05 5.37-5.83t3.95-5.5q1.58-2.73 2.42-5.54.85-2.8.85-5.91 0-2.83-.82-4.99-.82-2.15-2.32-3.62-1.49-1.47-3.59-2.21-2.1-.73-4.72-.73-2.4 0-4.44.68t-3.62 1.91q-1.58 1.22-2.67 2.86-1.09 1.63-1.64 3.59-.92 2.51-2.4 3.33-1.47.82-4.25.38l-7.08-1.25q.81-5.67 3.16-9.95 2.34-4.28 5.86-7.14 3.51-2.86 8.06-4.3 4.55-1.45 9.79-1.45 5.45 0 9.97 1.61t7.74 4.55q3.21 2.94 5.01 7.08 1.8 4.15 1.8 9.21 0 4.36-1.28 8.07t-3.43 7.09q-2.16 3.37-5.04 6.54-2.89 3.16-6.05 6.43l-17.77 18.15q2.56-.77 5.09-1.18 2.54-.41 4.83-.41m90.47-26.86q0 10.3-2.21 17.9t-6.1 12.56q-3.9 4.96-9.21 7.39-5.32 2.42-11.48 2.42-6.15 0-11.41-2.42-5.26-2.43-9.13-7.39t-6.05-12.56-2.18-17.9q0-10.36 2.18-17.93 2.18-7.58 6.05-12.54t9.13-7.38q5.26-2.43 11.41-2.43 6.16 0 11.48 2.43 5.31 2.42 9.21 7.38 3.89 4.96 6.1 12.54 2.21 7.57 2.21 17.93m-13.9 0q0-8.56-1.25-14.17-1.26-5.62-3.35-8.94-2.1-3.33-4.83-4.66-2.72-1.34-5.67-1.34-2.88 0-5.58 1.34-2.7 1.33-4.77 4.66-2.07 3.32-3.3 8.94-1.22 5.61-1.22 14.17 0 8.55 1.22 14.17 1.23 5.61 3.3 8.93 2.07 3.33 4.77 4.66 2.7 1.34 5.58 1.34 2.95 0 5.67-1.34 2.73-1.33 4.83-4.66 2.09-3.32 3.35-8.93 1.25-5.62 1.25-14.17m100.44 21.36-7.14 7.03-18.47-18.47-18.64 18.58-7.14-7.03 18.64-18.69-17.77-17.77 7.09-7.09 17.76 17.77 17.66-17.66 7.2 7.09-17.72 17.71zm84.21-60.77-23.38 28.62-2.73 3.37q2.29-1.14 4.93-1.77 2.65-.62 5.7-.62 4.47 0 8.69 1.47t7.44 4.44 5.18 7.38q1.96 4.42 1.96 10.31 0 5.5-2.02 10.32-2.01 4.83-5.66 8.42-3.66 3.6-8.81 5.67t-11.36 2.07q-6.32 0-11.34-2.01-5.01-2.02-8.55-5.65-3.54-3.62-5.42-8.72-1.89-5.09-1.89-11.3 0-5.56 2.27-11.42 2.26-5.86 7-12.18l18.8-25.24q.98-1.3 2.86-2.23t4.34-.93zm-20.33 68.67q3.21 0 5.91-1.09t4.63-3.05q1.94-1.96 3.03-4.6 1.09-2.65 1.09-5.75 0-3.38-1.04-6.08-1.03-2.7-2.94-4.58t-4.58-2.86-5.88-.98q-3.22 0-5.84 1.09-2.61 1.09-4.46 3.02-1.86 1.94-2.89 4.58-1.04 2.65-1.04 5.7 0 3.27.9 5.96.9 2.7 2.67 4.61t4.39 2.97q2.61 1.06 6.05 1.06m83.55-68.67-23.38 28.62-2.73 3.37q2.29-1.14 4.93-1.77 2.65-.62 5.7-.62 4.47 0 8.69 1.47t7.44 4.44 5.18 7.38q1.96 4.42 1.96 10.31 0 5.5-2.02 10.32-2.01 4.83-5.66 8.42-3.66 3.6-8.81 5.67t-11.36 2.07q-6.32 0-11.34-2.01-5.01-2.02-8.55-5.65-3.54-3.62-5.42-8.72-1.89-5.09-1.89-11.3 0-5.56 2.27-11.42 2.26-5.86 7-12.18l18.8-25.24q.98-1.3 2.86-2.23t4.34-.93zm-20.33 68.67q3.21 0 5.91-1.09t4.63-3.05q1.94-1.96 3.03-4.6 1.09-2.65 1.09-5.75 0-3.38-1.04-6.08-1.03-2.7-2.94-4.58t-4.58-2.86-5.88-.98q-3.22 0-5.84 1.09-2.61 1.09-4.46 3.02-1.86 1.94-2.89 4.58-1.04 2.65-1.04 5.7 0 3.27.9 5.96.9 2.7 2.67 4.61t4.39 2.97q2.61 1.06 6.05 1.06m92.21-29.26q0 10.3-2.21 17.9-2.2 7.6-6.1 12.56t-9.21 7.39q-5.31 2.42-11.47 2.42t-11.42-2.42q-5.26-2.43-9.13-7.39t-6.05-12.56-2.18-17.9q0-10.36 2.18-17.93 2.18-7.58 6.05-12.54t9.13-7.38q5.26-2.43 11.42-2.43t11.47 2.43q5.31 2.42 9.21 7.38t6.1 12.54q2.21 7.57 2.21 17.93m-13.9 0q0-8.56-1.25-14.17-1.25-5.62-3.35-8.94-2.1-3.33-4.82-4.66-2.73-1.34-5.67-1.34-2.89 0-5.59 1.34-2.7 1.33-4.77 4.66-2.07 3.32-3.29 8.94-1.23 5.61-1.23 14.17 0 8.55 1.23 14.17 1.22 5.61 3.29 8.93 2.07 3.33 4.77 4.66 2.7 1.34 5.59 1.34 2.94 0 5.67-1.34 2.72-1.33 4.82-4.66 2.1-3.32 3.35-8.93 1.25-5.62 1.25-14.17"/></svg>